<?xml version="1.0" encoding="UTF-8" standalone="no"?>
<svg width="250px" height="250px" viewBox="0 0 250 250" version="1.1" xmlns="http://www.w3.org/2000/svg" xmlns:xlink="http://www.w3.org/1999/xlink">
    <!-- Generator: Sketch 3.7.1 (28215) - http://www.bohemiancoding.com/sketch -->
    <title>Artboard 1 Copy</title>
    <desc>Created with Sketch.</desc>
    <defs>
        <path d="M64,133.5 L106,133.5 L106,153.804594 C106,153.804594 95.5,160 85,160 C74.5,160 64,153.804594 64,153.804594 L64,133.5 Z" id="path-1"></path>
        <mask id="mask-2" maskContentUnits="userSpaceOnUse" maskUnits="objectBoundingBox" x="0" y="0" width="42" height="26.5" fill="white">
            <use xlink:href="#path-1"></use>
        </mask>
        <path d="M42.4063373,11.1646982 C42.4063373,11.1646982 64.0922441,-1.2571766 89.8962946,0.835649014 C102.469286,1.85537566 124.202826,9.92066529 128.287386,12.5864195 C136.300261,14.8188825 145.510925,41.0265854 144.306179,64.1294047 C143.904636,71.82959 136.471042,80.9840533 136.471042,80.9840533 C136.471042,80.9840533 136.291939,64.5345997 133.830149,52.1243891 C132.084907,43.3263923 121.246851,38.1498387 116.577152,37.1430384 C107.032527,35.0851904 57.479212,33.991958 48.1794893,42.2452578 C38.8797666,50.4985575 31.3095294,80.2143008 31.3095294,80.2143008 C31.3095294,80.2143008 26.4075172,76.4126229 26.0599752,65.4586397 C25.4302161,45.6096183 31.7736667,14.6217152 42.4063373,11.1646982 Z" id="path-3"></path>
        <mask id="mask-4" maskContentUnits="userSpaceOnUse" maskUnits="objectBoundingBox" x="0" y="0" width="118.395987" height="80.3859894" fill="white">
            <use xlink:href="#path-3"></use>
        </mask>
    </defs>
    <g id="Page-1" stroke="none" stroke-width="1" fill="none" fill-rule="evenodd">
        <g id="Artboard-1-Copy">
            <g id="Group-2" transform="translate(41.000000, 34.000000)">
                <path d="M152.23704,165.222645 C136.54064,151.494199 107.048794,148.685269 85.2986185,148.685269 C62.1034972,148.685269 35.8388849,152.672495 19.8243067,165.222645 C1.33219017,179.714368 0.501056194,204.900871 0.501056194,228.326382 L31.4106788,236.138592 L31.4106787,228.326382 L141.231693,228.326384 L141.231695,232.281834 L169,228.326382 C169,203.637086 167.93344,178.951091 152.23704,165.222645 Z" id="Oval-2-Copy-3" stroke="#979797" stroke-width="2" fill="#F4F4F4"></path>
                <g id="Group" transform="translate(34.000000, 130.326384)" stroke="#EE7E7E">
                    <path d="M59.5304433,83.8635741 C59.5304433,83.8635741 82.9609833,70.5589774 86.776815,51.8642269 C89.3312821,39.349229 73.9618673,11.718494 56.3375465,13.6276057 C36.7812773,15.7459911 25.2000653,22.7746871 18.3686716,29.9245743" id="Path-5-Copy" stroke-width="4" transform="translate(52.712241, 48.698539) rotate(-55.000000) translate(-52.712241, -48.698539) "></path>
                    <ellipse id="Oval-4" stroke-width="3" fill="#F3F3F3" cx="84.4102564" cy="67.7327586" rx="5.86324786" ry="5.85344828"></ellipse>
                    <path d="M49.183042,98.7538467 C49.183042,98.7538467 50.8677895,86.7502864 46.8295337,77.4960621 C43.0400854,68.8120148 33.709355,62.8410201 28.0624457,62.8410201 C22.4264691,62.8410201 14.057858,68.8298918 10.2705714,77.4960621 C6.21944355,86.7659606 6.94184945,98.7538467 6.94184945,98.7538467" id="Oval-5" stroke-width="4" stroke-linecap="round" transform="translate(28.211769, 80.797433) rotate(-34.000000) translate(-28.211769, -80.797433) "></path>
                </g>
                <use id="Rectangle-1" stroke="#979797" mask="url(#mask-2)" stroke-width="4" fill="#FAE7D0" xlink:href="#path-1"></use>
                <path d="M27.2122439,88.989895 C32.7392241,121.531275 56.5116844,146 85,146 C113.488316,146 137.260776,121.531275 142.787756,88.989895 C146.244085,88.7466693 149,84.1432289 149,78.5 C149,73.4054966 146.753977,69.1584028 143.774239,68.2016789 C141.142802,31.663168 115.833526,3 85,3 C54.1664739,3 28.8571975,31.663168 26.2257609,68.2016789 C23.2460233,69.1584028 21,73.4054966 21,78.5 C21,84.1432289 23.7559153,88.7466693 27.2122439,88.989895 Z" id="Combined-Shape" stroke="#979797" stroke-width="2" fill="#FAE7D0"></path>
                <path d="M27.2122439,88.989895 C32.7392241,121.531275 56.5116844,146 85,146 C113.488316,146 137.260776,121.531275 142.787756,88.989895 C146.244085,88.7466693 149,84.1432289 149,78.5 C149,73.4054966 146.753977,69.1584028 143.774239,68.2016789 C141.142802,31.663168 115.833526,3 85,3 C54.1664739,3 28.8571975,31.663168 26.2257609,68.2016789 C23.2460233,69.1584028 21,73.4054966 21,78.5 C21,84.1432289 23.7559153,88.7466693 27.2122439,88.989895 Z" id="Combined-Shape-Copy" stroke="#979797" stroke-width="2" fill="#FAE7D0"></path>
                <path d="M86.0000001,75.58437 C86.0000001,75.58437 81.562469,86.6009445 82.2487672,93.3977836 C82.9350654,100.194623 91.785125,97.3612499 91.785125,97.3612499" id="Path-2" stroke="#979797" stroke-width="2"></path>
                <path d="M115,69.9700936 C115,67.2086698 112.761424,64.9700936 110,64.9700936 C107.238576,64.9700936 105,67.2086698 105,69.9700936 C105,72.7315173 107.238576,74.9700936 110,74.9700936 C112.761424,74.9700936 115,72.7315173 115,69.9700936 Z" id="Oval-2" fill="#979797"></path>
                <path d="M70,70 C70,67.2385763 67.7614237,65 65,65 C62.2385763,65 60,67.2385763 60,70 C60,72.7614237 62.2385763,75 65,75 C67.7614237,75 70,72.7614237 70,70 Z" id="Oval-2-Copy" fill="#979797"></path>
                <path d="M69,114 C69,118.179219 77.9847035,120.983764 86.7230704,120.983764 C95.4614373,120.983764 104.763186,118.179219 104.763186,114" id="Oval-4" stroke="#979797" stroke-width="2" fill="#FFFFFF"></path>
                <path d="M100.540225,125.16818 C100.540225,125.16818 92.0142271,129.577979 87.1666533,129.577978 C82.3190794,129.577978 74.9963388,126.446759 74.9963388,126.446759" id="Path-9" stroke="#979797" stroke-width="2"></path>
                <use id="Rectangle-3" stroke="#979797" mask="url(#mask-4)" stroke-width="4" fill="#D6C2B9" xlink:href="#path-3"></use>
            </g>
        </g>
    </g>
</svg>