<?xml version="1.0" encoding="UTF-8" standalone="no"?>
<svg width="698px" height="698px" viewBox="0 0 698 698" version="1.1" xmlns="http://www.w3.org/2000/svg" xmlns:xlink="http://www.w3.org/1999/xlink">
    <!-- Generator: Sketch 3.7.1 (28215) - http://www.bohemiancoding.com/sketch -->
    <title>Artboard 1</title>
    <desc>Created with Sketch.</desc>
    <defs>
        <rect id="path-1" x="175" y="170.5" width="11" height="7"></rect>
        <mask id="mask-2" maskContentUnits="userSpaceOnUse" maskUnits="objectBoundingBox" x="0" y="0" width="11" height="7" fill="white">
            <use xlink:href="#path-1"></use>
        </mask>
        <rect id="path-3" x="165" y="170.5" width="11" height="7"></rect>
        <mask id="mask-4" maskContentUnits="userSpaceOnUse" maskUnits="objectBoundingBox" x="0" y="0" width="11" height="7" fill="white">
            <use xlink:href="#path-3"></use>
        </mask>
        <rect id="path-5" x="165" y="170.5" width="11" height="7"></rect>
        <mask id="mask-6" maskContentUnits="userSpaceOnUse" maskUnits="objectBoundingBox" x="0" y="0" width="11" height="7" fill="white">
            <use xlink:href="#path-5"></use>
        </mask>
        <rect id="path-7" x="185" y="170.5" width="11" height="7"></rect>
        <mask id="mask-8" maskContentUnits="userSpaceOnUse" maskUnits="objectBoundingBox" x="0" y="0" width="11" height="7" fill="white">
            <use xlink:href="#path-7"></use>
        </mask>
    </defs>
    <g id="Page-1" stroke="none" stroke-width="1" fill="none" fill-rule="evenodd">
        <g id="Artboard-1">
            <g id="Group" transform="translate(168.000000, 188.000000)">
                <polygon id="Rectangle-6" fill="#7A4631" points="324 213 297.428886 319 61.5711141 319 35 213"></polygon>
                <path d="M23.5104799,226.782333 C28.268869,249.642161 42.0368549,275.26407 60.8427591,289.766144 C89.2858573,311.699888 139.938614,309 178.5,309 C218.514531,309 267.164113,307.787758 295.687024,284.534714 C314.954727,268.826894 327.946708,236.757378 332.399168,213.552681 C334.501016,202.598568 350.521482,198.457305 350.521482,190.024139 C350.521482,137.280946 258.305146,118 178.5,118 C98.6948537,118 4.27804371,137.280946 4.27804371,190.024139 C4.27804371,200.43191 20.5713946,212.662642 23.5104799,226.782333 Z" id="Oval-17" fill="#EC3049"></path>
                <ellipse id="Oval-10" fill="#FFEEC3" cx="179" cy="113.5" rx="126" ry="99.5"></ellipse>
                <path d="M87.0254517,90.7532883 C110.663769,78 123.509111,66.2994308 179,66.2994308 C232.270413,66.2994308 257.354205,87.3307696 275.786621,90.7532883 C281.432725,91.8016532 304.913706,111.561854 302.838374,98.7048492 C294.416621,46.5307846 248.587878,14 179,14 C109.412122,14 68.6766876,43.8511429 54.7957825,98.7048492 C51.9908619,109.789162 63.3871346,103.506577 87.0254517,90.7532883 Z" id="Oval-10-Copy" fill="#02B8C0"></path>
                <path d="M87.0254517,90.7532883 C110.663769,78 123.509111,66.2994308 179,66.2994308 C232.270413,66.2994308 257.354205,87.3307696 275.786621,90.7532883 C281.432725,91.8016532 304.913706,111.561854 302.838374,98.7048492 C301.391878,89.7435837 299.04917,92.3047407 295.034223,90.7532896 C290.151127,88.8663696 283.081766,83.7648418 275.786619,80.8335641 C254.15754,72.1427412 222.099037,59.2160149 178.999997,59.2160149 C160.337312,59.2160149 152.225199,58.6513301 142.959112,59.2160148 C136.507492,59.6091831 131.174732,58.8666929 114.296354,66.299431 C97.2595855,73.8019195 75.231206,87.5735225 68.6370806,90.7532877 C63.0693573,93.4381097 58.2596197,85.0166707 54.7957825,98.7048492 C51.9908619,109.789162 63.3871346,103.506577 87.0254517,90.7532883 Z" id="Oval-10-Copy-2" fill="#FFE11D"></path>
                <ellipse id="Oval-11" stroke="#979797" fill="#FFFFFF" transform="translate(210.000000, 113.500000) rotate(-16.000000) translate(-210.000000, -113.500000) " cx="210" cy="113.5" rx="29" ry="37.5"></ellipse>
                <ellipse id="Oval-11-Copy" stroke="#979797" fill="#FFFFFF" transform="translate(149.787010, 113.500000) scale(-1, 1) rotate(-16.000000) translate(-149.787010, -113.500000) " cx="149.78701" cy="113.5" rx="29" ry="37.5"></ellipse>
                <circle id="Oval-13" fill="#000000" cx="200.5" cy="111.5" r="2.5"></circle>
                <circle id="Oval-13-Copy" fill="#000000" cx="162.5" cy="111.5" r="2.5"></circle>
                <path d="M206.71205,14 C203.324351,9.77840067 199.242754,7.51161925 193.190398,5.10902069 C188.844033,3.38364813 182.712787,0.866835093 178.673104,0.866835093 C173.985833,0.866835093 165.225315,2.85715335 160.276782,5.10902069 C155.021619,7.50042298 153.631863,10.2643929 150.634157,14 C144.813658,21.2532467 157.367122,27.1331649 178.673104,27.1331649 C199.979085,27.1331649 212.532549,21.2532467 206.71205,14 Z" id="Oval-17" stroke="#FFE11D" stroke-linecap="round" stroke-linejoin="bevel" stroke-dasharray="2" fill="#FFE11D"></path>
                <path d="M157.173104,170.5 C157.173104,182.374122 166.798981,192 178.673104,192 L178.673104,192 C190.547226,192 200.173104,182.374122 200.173104,170.5" id="Oval-17" fill="#333333"></path>
                <use id="Rectangle-3" stroke="#333333" mask="url(#mask-2)" stroke-width="2" fill="#FFFFFF" xlink:href="#path-1"></use>
                <use id="Rectangle-3-Copy" stroke="#333333" mask="url(#mask-4)" stroke-width="2" fill="#FFFFFF" xlink:href="#path-3"></use>
                <use id="Rectangle-3-Copy-3" stroke="#333333" mask="url(#mask-6)" stroke-width="2" fill="#FFFFFF" xlink:href="#path-5"></use>
                <use id="Rectangle-3-Copy-2" stroke="#333333" mask="url(#mask-8)" stroke-width="2" fill="#FFFFFF" xlink:href="#path-7"></use>
                <path d="M188,319 C188,316.885116 157.779221,315.170664 120.5,315.170664 C83.2207794,315.170664 53,316.885116 53,319 C53,321.114884 83.2207794,322.829336 120.5,322.829336 C157.779221,322.829336 188,321.114884 188,319 Z" id="Oval-18" fill="#1C1C1C"></path>
                <path d="M305,319 C305,316.885116 274.779221,315.170664 237.5,315.170664 C200.220779,315.170664 170,316.885116 170,319 C170,321.114884 200.220779,322.829336 237.5,322.829336 C274.779221,322.829336 305,321.114884 305,319 Z" id="Oval-18-Copy" fill="#1C1C1C"></path>
                <path d="M303.62173,220.739666 C308.205311,226.38945 328.883937,227.5 336.72609,227.5 C350.533209,227.5 361.72609,216.307119 361.72609,202.5 C361.72609,188.692881 350.533209,177.5 336.72609,177.5 C322.918971,177.5 311.72609,188.692881 311.72609,202.5 C311.72609,208.464966 300.135328,216.442279 303.62173,220.739666 Z" id="Oval-18" fill="#FFE11D"></path>
                <path d="M1.27401006,212.739666 C5.85759098,218.38945 26.5362169,219.5 34.3783697,219.5 C48.1854884,219.5 59.3783697,208.307119 59.3783697,194.5 C59.3783697,180.692881 48.1854884,169.5 34.3783697,169.5 C20.5712509,169.5 9.37836969,180.692881 9.37836969,194.5 C9.37836969,200.464966 -2.21239279,208.442279 1.27401006,212.739666 Z" id="Oval-18-Copy-2" fill="#FFE11D" transform="translate(29.999243, 194.500000) scale(-1, 1) translate(-29.999243, -194.500000) "></path>
                <path d="M108.655418,220.27182 C166.264129,220.27182 199.542325,197.306676 199.542325,197.306676 C199.542325,197.306676 236.256334,163.390558 246.144108,134.331596" id="Path-20" stroke="#979797" transform="translate(177.399763, 177.301708) rotate(32.000000) translate(-177.399763, -177.301708) "></path>
                <path d="M186.5,213.552684 C186.5,213.552684 191.272479,241.75109 191.272479,255.651664 C191.272479,273.233528 186.5,308 186.5,308" id="Line" stroke="#333333" stroke-linecap="square"></path>
                <ellipse id="Oval-20" fill="#333333" cx="179" cy="230.5" rx="5" ry="2.5"></ellipse>
                <ellipse id="Oval-20-Copy" fill="#333333" cx="180" cy="258.5" rx="5" ry="2.5"></ellipse>
                <ellipse id="Oval-20-Copy-2" fill="#333333" cx="179" cy="290.5" rx="5" ry="2.5"></ellipse>
            </g>
        </g>
    </g>
</svg>